<?xml version="1.0" encoding="UTF-8" standalone="no"?><!DOCTYPE svg PUBLIC "-//W3C//DTD SVG 1.1//EN" "http://www.w3.org/Graphics/SVG/1.1/DTD/svg11.dtd"><svg width="100%" height="100%" viewBox="0 0 167 26" version="1.1" xmlns="http://www.w3.org/2000/svg" xmlns:xlink="http://www.w3.org/1999/xlink" xml:space="preserve" xmlns:serif="http://www.serif.com/" style="fill-rule:evenodd;clip-rule:evenodd;stroke-linejoin:round;stroke-miterlimit:2;"><rect x="0" y="0" width="2.871" height="24.611" style="fill:#161616;fill-rule:nonzero;"/><path d="M12.066,25.021c-2.005,-0 -3.6,-0.61 -4.785,-1.829c-1.185,-1.219 -1.778,-3.093 -1.778,-5.623l0,-9.912l2.871,-0l0,9.605c0,3.532 1.447,5.298 4.342,5.298c1.481,-0 2.706,-0.53 3.674,-1.59c0.969,-1.059 1.453,-2.569 1.453,-4.529l-0,-8.784l2.871,-0l0,16.954l-2.598,-0l-0.205,-3.042c-0.524,1.071 -1.304,1.914 -2.341,2.529c-1.037,0.615 -2.205,0.923 -3.504,0.923Z" style="fill:#161616;fill-rule:nonzero;"/><path d="M23.722,24.611l-0,-16.954l2.598,-0l0.205,2.461c0.547,-0.912 1.276,-1.618 2.187,-2.12c0.912,-0.501 1.937,-0.752 3.077,-0.752c1.344,0 2.501,0.274 3.469,0.821c0.969,0.547 1.715,1.378 2.239,2.495c0.593,-1.025 1.407,-1.834 2.444,-2.427c1.037,-0.592 2.159,-0.889 3.367,-0.889c2.028,0 3.646,0.61 4.854,1.829c1.208,1.219 1.811,3.094 1.811,5.623l0,9.913l-2.837,-0l0,-9.605c0,-1.755 -0.353,-3.077 -1.059,-3.965c-0.707,-0.889 -1.721,-1.333 -3.042,-1.333c-1.368,-0 -2.501,0.529 -3.402,1.589c-0.9,1.06 -1.35,2.569 -1.35,4.529l0,8.785l-2.871,-0l0,-9.605c0,-1.755 -0.353,-3.077 -1.06,-3.965c-0.706,-0.889 -1.72,-1.333 -3.042,-1.333c-1.344,-0 -2.466,0.529 -3.367,1.589c-0.9,1.06 -1.35,2.569 -1.35,4.529l0,8.785l-2.871,-0Z" style="fill:#161616;fill-rule:nonzero;"/><path d="M60.57,25.021c-1.618,-0 -3.054,-0.37 -4.307,-1.111c-1.254,-0.741 -2.239,-1.772 -2.957,-3.093c-0.718,-1.322 -1.077,-2.883 -1.077,-4.683c0,-1.778 0.354,-3.333 1.06,-4.666c0.706,-1.333 1.692,-2.37 2.957,-3.111c1.264,-0.74 2.729,-1.111 4.392,-1.111c1.641,0 3.059,0.371 4.256,1.111c1.196,0.741 2.113,1.715 2.751,2.923c0.638,1.208 0.957,2.507 0.957,3.897c0,0.25 -0.034,1.287 -0.034,1.606l-13.502,0c0.069,1.299 0.371,2.376 0.906,3.23c0.536,0.855 1.208,1.499 2.017,1.932c0.809,0.433 1.669,0.649 2.581,0.649c1.185,-0 2.176,-0.273 2.973,-0.82c0.798,-0.547 1.379,-1.288 1.744,-2.222l2.837,-0c-0.456,1.572 -1.328,2.877 -2.615,3.914c-1.288,1.036 -2.934,1.555 -4.939,1.555Zm-0,-15.348c-1.368,0 -2.581,0.416 -3.641,1.248c-1.059,0.832 -1.669,2.045 -1.828,3.64l10.664,0c-0.068,-1.526 -0.592,-2.723 -1.572,-3.589c-0.98,-0.866 -2.188,-1.299 -3.623,-1.299Z" style="fill:#161616;fill-rule:nonzero;"/><path d="M79.643,25.021c-1.641,-0 -3.082,-0.302 -4.324,-0.906c-1.242,-0.604 -2.21,-1.447 -2.905,-2.529c-0.695,-1.083 -1.043,-2.365 -1.043,-3.846c0,-1.618 0.473,-3.059 1.419,-4.324c0.945,-1.264 2.318,-2.261 4.118,-2.991c-0.774,-0.843 -1.333,-1.646 -1.674,-2.409c-0.342,-0.764 -0.513,-1.59 -0.513,-2.479c-0,-1.526 0.541,-2.785 1.623,-3.777c1.083,-0.991 2.57,-1.487 4.461,-1.487c1.231,0 2.302,0.234 3.213,0.701c0.912,0.467 1.618,1.111 2.119,1.931c0.502,0.821 0.73,1.755 0.684,2.803l-2.837,0c0.023,-1.025 -0.29,-1.8 -0.94,-2.324c-0.649,-0.524 -1.396,-0.786 -2.239,-0.786c-1.025,-0 -1.823,0.273 -2.393,0.82c-0.569,0.547 -0.854,1.242 -0.854,2.085c-0,0.729 0.199,1.436 0.598,2.119c0.399,0.684 0.997,1.448 1.795,2.291l7.554,7.622c0.661,-0.957 1.378,-2.108 2.153,-3.452l1.06,-1.846l3.042,-0l-1.504,2.666c-1.003,1.8 -1.96,3.304 -2.871,4.512l5.161,5.196l-3.623,-0l-3.179,-3.213c-1.208,1.299 -2.461,2.227 -3.76,2.785c-1.299,0.559 -2.746,0.838 -4.341,0.838Zm-5.401,-7.383c0,1.413 0.502,2.586 1.504,3.52c1.003,0.935 2.313,1.402 3.931,1.402c1.208,-0 2.307,-0.234 3.299,-0.701c0.991,-0.467 1.965,-1.236 2.922,-2.307l-7.246,-7.349c-1.504,0.592 -2.615,1.344 -3.333,2.256c-0.718,0.911 -1.077,1.971 -1.077,3.179Z" style="fill:#161616;fill-rule:nonzero;"/><rect x="97.076" y="0" width="2.871" height="24.611" style="fill:#161616;fill-rule:nonzero;"/><path d="M110.68,25.021c-1.595,-0 -3.031,-0.365 -4.307,-1.094c-1.276,-0.729 -2.285,-1.76 -3.025,-3.093c-0.741,-1.333 -1.111,-2.9 -1.111,-4.7c-0,-1.801 0.376,-3.367 1.128,-4.7c0.752,-1.333 1.772,-2.364 3.059,-3.094c1.288,-0.729 2.729,-1.094 4.324,-1.094c1.595,0 3.031,0.365 4.307,1.094c1.276,0.73 2.285,1.761 3.025,3.094c0.741,1.333 1.111,2.899 1.111,4.7c0,1.8 -0.376,3.367 -1.128,4.7c-0.752,1.333 -1.772,2.364 -3.059,3.093c-1.288,0.729 -2.729,1.094 -4.324,1.094Zm-0,-2.461c0.98,-0 1.891,-0.239 2.734,-0.718c0.843,-0.479 1.527,-1.196 2.051,-2.153c0.524,-0.958 0.786,-2.142 0.786,-3.555c0,-1.413 -0.256,-2.598 -0.769,-3.555c-0.512,-0.957 -1.19,-1.675 -2.033,-2.154c-0.844,-0.478 -1.744,-0.717 -2.701,-0.717c-0.98,-0 -1.891,0.239 -2.734,0.717c-0.843,0.479 -1.527,1.197 -2.051,2.154c-0.524,0.957 -0.786,2.142 -0.786,3.555c-0,1.413 0.262,2.597 0.786,3.555c0.524,0.957 1.202,1.674 2.034,2.153c0.831,0.479 1.726,0.718 2.683,0.718Z" style="fill:#161616;fill-rule:nonzero;"/><path d="M129.548,25.021c-1.595,-0 -3.031,-0.365 -4.307,-1.094c-1.276,-0.729 -2.284,-1.76 -3.025,-3.093c-0.741,-1.333 -1.111,-2.9 -1.111,-4.7c0,-1.801 0.376,-3.367 1.128,-4.7c0.752,-1.333 1.772,-2.364 3.059,-3.094c1.288,-0.729 2.729,-1.094 4.324,-1.094c1.596,0 3.031,0.365 4.307,1.094c1.276,0.73 2.285,1.761 3.025,3.094c0.741,1.333 1.111,2.899 1.111,4.7c0,1.8 -0.376,3.367 -1.128,4.7c-0.752,1.333 -1.771,2.364 -3.059,3.093c-1.287,0.729 -2.729,1.094 -4.324,1.094Zm0,-2.461c0.98,-0 1.891,-0.239 2.735,-0.718c0.843,-0.479 1.526,-1.196 2.05,-2.153c0.525,-0.958 0.787,-2.142 0.787,-3.555c-0,-1.413 -0.257,-2.598 -0.769,-3.555c-0.513,-0.957 -1.191,-1.675 -2.034,-2.154c-0.843,-0.478 -1.744,-0.717 -2.701,-0.717c-0.979,-0 -1.891,0.239 -2.734,0.717c-0.843,0.479 -1.527,1.197 -2.051,2.154c-0.524,0.957 -0.786,2.142 -0.786,3.555c-0,1.413 0.262,2.597 0.786,3.555c0.524,0.957 1.202,1.674 2.034,2.153c0.832,0.479 1.726,0.718 2.683,0.718Z" style="fill:#161616;fill-rule:nonzero;"/><path d="M140.008,24.611l-0,-16.954l2.597,-0l0.205,2.461c0.547,-0.912 1.277,-1.618 2.188,-2.12c0.912,-0.501 1.937,-0.752 3.076,-0.752c1.345,0 2.501,0.274 3.47,0.821c0.968,0.547 1.715,1.378 2.239,2.495c0.592,-1.025 1.407,-1.834 2.444,-2.427c1.037,-0.592 2.159,-0.889 3.367,-0.889c2.028,0 3.646,0.61 4.853,1.829c1.208,1.219 1.812,3.094 1.812,5.623l0,9.913l-2.837,-0l-0,-9.605c-0,-1.755 -0.353,-3.077 -1.06,-3.965c-0.706,-0.889 -1.72,-1.333 -3.042,-1.333c-1.367,-0 -2.501,0.529 -3.401,1.589c-0.9,1.06 -1.35,2.569 -1.35,4.529l-0,8.785l-2.871,-0l-0,-9.605c-0,-1.755 -0.354,-3.077 -1.06,-3.965c-0.706,-0.889 -1.72,-1.333 -3.042,-1.333c-1.345,-0 -2.467,0.529 -3.367,1.589c-0.9,1.06 -1.35,2.569 -1.35,4.529l-0,8.785l-2.871,-0Z" style="fill:#161616;fill-rule:nonzero;"/></svg>